<?xml version="1.0" standalone="no"?>
<!DOCTYPE svg PUBLIC "-//W3C//DTD SVG 1.1//EN" "http://www.w3.org/Graphics/SVG/1.1/DTD/svg11.dtd" >
<svg xmlns="http://www.w3.org/2000/svg">
<metadata></metadata>
<defs>
<font id="MyriadProRegular" horiz-adv-x="1050" >
<font-face units-per-em="2048" ascent="1536" descent="-512" />
<missing-glyph horiz-adv-x="434" />
<glyph unicode="&#xfb03;" horiz-adv-x="1669" d="M29 854v137h139v37q0 213 119 330q92 96 254 96q88 0 174 -43l-49 -133q-66 35 -125 35q-80 0 -129 -53q-66 -72 -66 -230v-39h418v53q0 199 113.5 316t320.5 117q154 -1 246 -64l-53 -135q-84 53 -201 53q-248 0 -248 -291v-49h578v-991h-181v854h-395v-854h-180v854 h-418v-854h-178v854h-139z" />
<glyph unicode="&#xfb04;" horiz-adv-x="1669" d="M29 854v137h139v25q0 227 115 340q102 98 268 98q84 0 164 -37l-47 -135q-61 31 -123 31q-84 0 -133 -53q-66 -72 -66 -228v-41h418v43q0 217 141 342q117 100 318 101q176 0 297 -66v-1411h-179v1311q-53 27 -149 26q-131 0 -190.5 -81.5t-59.5 -215.5v-49h234v-137 h-232v-854h-180v854h-418v-854h-178v854h-139z" />
<glyph horiz-adv-x="2048" />
<glyph horiz-adv-x="2048" />
<glyph unicode="&#xd;" horiz-adv-x="681" />
<glyph unicode=" "  horiz-adv-x="434" />
<glyph unicode="&#x09;" horiz-adv-x="434" />
<glyph unicode="&#xa0;" horiz-adv-x="434" />
<glyph unicode="!" horiz-adv-x="471" d="M115 104.5q0 55.5 33.5 91t87.5 35.5q55 0 87.5 -35.5t32.5 -91t-32.5 -91.5t-87.5 -36q-53 0 -87 36t-34 91.5zM137 1380h197l-29 -983h-139z" />
<glyph unicode="&#x22;" horiz-adv-x="690" d="M104 1403h179l-35 -492h-111zM410 1403h178l-35 -492h-109z" />
<glyph unicode="#" horiz-adv-x="1017" d="M76 401v121h186l39 297h-176v121h194l54 391h119l-52 -391h213l54 391h120l-51 -391h168v-121h-186l-37 -297h176v-121h-195l-53 -401h-123l54 401h-213l-54 -401h-123l54 401h-168zM385 522h213l39 297h-213z" />
<glyph unicode="$" d="M133 121l49 137q133 -88 295 -88q109 0 176.5 56.5t67.5 144.5q0 82 -56.5 139t-175.5 104q-170 68 -253.5 148t-83.5 207t83.5 217t225.5 112v207h127v-198q154 -4 266 -72l-51 -135q-123 70 -258 69q-109 0 -163 -53t-54 -123q0 -76 56 -126t198 -107 q164 -66 240.5 -154t76.5 -221q0 -127 -86 -225.5t-238 -122.5v-213h-129v207q-193 4 -313 90z" />
<glyph unicode="%" horiz-adv-x="1622" d="M61 938q0 193 92.5 304.5t229.5 111.5q141 0 225 -104.5t84 -293.5q0 -201 -91 -310t-228 -109q-131 0 -220.5 104t-91.5 297zM205 944q-4 -131 43 -215t129 -84q86 0 129 82t43 221q0 131 -42 214t-130 83q-82 0 -127 -85t-45 -216zM360 -23l783 1377h114l-782 -1377 h-115zM930 385q0 195 92 306.5t229 111.5q141 0 224.5 -104.5t83.5 -292.5q0 -201 -91.5 -310.5t-226.5 -109.5q-131 0 -220 104.5t-91 294.5zM1071 393q-2 -131 45 -215t129 -84q86 0 129 82t43 221q0 131 -42 214t-130 83q-82 0 -128 -85t-46 -216z" />
<glyph unicode="&#x26;" horiz-adv-x="1239" d="M63 365q0 256 271 403v6q-115 143 -115 289q0 135 94.5 237.5t255.5 102.5q131 0 218 -81t87 -212q0 -111 -70.5 -200t-232.5 -169v-6q242 -281 336 -385q92 141 133 404h164q-59 -344 -198 -510q34 -37 227 -244h-213q-49 49 -129 135q-170 -158 -404 -158 q-195 0 -309.5 113t-114.5 275zM236 391q0 -119 79.5 -198.5t202.5 -79.5q170 0 285 125q-258 283 -389 434q-178 -115 -178 -281zM383 1079q0 -119 104 -248q117 66 173.5 127.5t56.5 143.5q0 72 -41 125t-119 53q-82 0 -128 -58.5t-46 -142.5z" />
<glyph unicode="'" horiz-adv-x="385" d="M104 1403h179l-35 -492h-111z" />
<glyph unicode="(" horiz-adv-x="581" d="M131 584q2 483 268 837h142q-258 -346 -258 -837q0 -469 258 -832h-142q-268 354 -268 832z" />
<glyph unicode=")" horiz-adv-x="581" d="M41 -248q258 360 258 837.5t-258 831.5h139q268 -344 269 -833q-1 -480 -269 -836h-139z" />
<glyph unicode="*" horiz-adv-x="849" d="M61 975v139l301 -39v4l-192 250l125 72l127 -285h4l125 287l123 -70l-195 -256v-4l309 41v-139l-309 37v-4l197 -246l-129 -74l-123 287h-4l-133 -289l-117 74l195 250v4z" />
<glyph unicode="+" horiz-adv-x="1220" d="M82 485v123h463v482h131v-482h463v-123h-463v-485h-131v485h-463z" />
<glyph unicode="," horiz-adv-x="423" d="M33 -252q82 221 123 490l200 20q-35 -129 -93 -276.5t-101 -221.5z" />
<glyph unicode="-" horiz-adv-x="628" d="M61 487v134h506v-134h-506z" />
<glyph unicode="." horiz-adv-x="423" d="M106 106q0 57 35 93.5t88.5 36.5t87 -36t33.5 -93.5t-34 -93.5t-89 -36q-53 0 -87 37t-34 92z" />
<glyph unicode="/" horiz-adv-x="702" d="M-2 -82l571 1485h140l-574 -1485h-137z" />
<glyph unicode="0" d="M74 662q0 328 127 510t335.5 182t324.5 -177.5t116 -496.5q0 -338 -121 -520.5t-342 -182.5q-199 0 -318.5 179.5t-121.5 505.5zM254 659q0 -256 72.5 -399t197.5 -143q135 0 204 146.5t69 408.5q0 254 -68 398t-203 144q-123 0 -197.5 -145t-74.5 -410z" />
<glyph unicode="1" d="M213 1176l291 155h153v-1331h-174v1163h-4l-231 -125z" />
<glyph unicode="2" d="M92 0v111l141 137q276 264 385 409.5t111 286.5q0 113 -62.5 186.5t-201.5 73.5q-147 0 -283 -112l-57 127q160 135 377 135q201 0 304 -115t103 -272q0 -170 -108.5 -327t-349.5 -388l-107 -98v-4h598v-150h-850z" />
<glyph unicode="3" d="M86 68l49 139q131 -84 295 -84q158 0 230.5 79t70.5 179q-2 131 -101.5 198.5t-242.5 67.5h-100v135h100q113 0 205 58.5t92 167.5q0 86 -58.5 143t-174.5 57q-143 0 -267 -88l-47 131q57 43 152.5 73t195.5 30q184 0 282.5 -92.5t98.5 -225.5q0 -104 -62.5 -187 t-182.5 -126v-4q129 -27 213 -117t84 -225q0 -170 -128 -285t-358 -115q-209 1 -346 91z" />
<glyph unicode="4" d="M31 362v119l594 850h194v-827h187v-142h-187v-362h-170v362h-618zM213 504h436v444q0 104 6 209h-6q-53 -100 -110 -196l-326 -453v-4z" />
<glyph unicode="5" d="M86 59l45 138q125 -74 285 -74q131 0 223 80t92 209q-2 135 -96 215t-287 80q-70 0 -184 -15l86 639h637v-151h-508l-51 -342q61 8 108 8q168 0 287 -72q190 -109 190 -342q0 -197 -140 -326t-355 -129q-205 0 -332 82z" />
<glyph unicode="6" d="M70 545q0 375 225 600q168 166 426 196q68 11 131 11v-148q-61 4 -135 -8q-201 -33 -319.5 -165t-143.5 -308h6q117 154 322 154q178 0 289.5 -118t111.5 -313q0 -193 -122 -331t-320 -138q-213 0 -342 155t-129 413zM248 498q4 -170 80 -275.5t213 -105.5 q117 0 188.5 88t71.5 231q0 141 -75 223t-200 82q-80 0 -150.5 -45t-107.5 -118q-20 -35 -20 -80z" />
<glyph unicode="7" d="M117 1182v149h839v-119l-579 -1212h-187l578 1178v4h-651z" />
<glyph unicode="8" d="M76 338q0 244 264 356l-2 6q-211 100 -211 299q0 156 116.5 255.5t295.5 99.5q182 0 284.5 -96.5t102.5 -231.5q0 -207 -219 -311v-6q268 -106 268 -344q0 -172 -130 -280t-323 -108q-203 0 -324.5 104.5t-121.5 256.5zM260 362q-4 -104 69.5 -178.5t196.5 -74.5 q121 0 194 66.5t73 170.5q0 115 -74 182.5t-219 108.5q-115 -33 -177.5 -105.5t-62.5 -169.5zM297 1012q0 -178 254 -246q92 31 147.5 93.5t55.5 148.5q0 90 -56.5 153.5t-169.5 63.5q-109 0 -170 -61.5t-61 -151.5z" />
<glyph unicode="9" d="M84 881q0 195 128 334t327 139q203 0 321.5 -152.5t118.5 -408.5q0 -403 -229 -625q-156 -152 -388 -178q-87 -14 -165 -10v147q41 -4 145 6q166 23 279 129q141 127 176 354h-6q-117 -143 -314 -143q-176 0 -284.5 117t-108.5 291zM262 893q0 -125 69.5 -204t186.5 -79 q88 0 156.5 38t105.5 102q16 27 17 65q0 180 -69 291t-204 111q-115 0 -188.5 -91.5t-73.5 -232.5z" />
<glyph unicode=":" horiz-adv-x="423" d="M106 104q0 57 35 93t88.5 36t86 -35.5t34.5 -93.5q0 -55 -34 -91t-89 -36q-53 0 -87 36t-34 91zM106 827q0 57 35 93t88.5 36t86 -35.5t34.5 -93.5q0 -55 -34 -91t-89 -36q-53 0 -87 36t-34 91z" />
<glyph unicode=";" horiz-adv-x="423" d="M35 -252q82 221 123 490l198 20q-37 -131 -95 -278.5t-101 -219.5zM123 827q0 57 33.5 93t87.5 36q55 0 88 -35.5t33 -93.5q0 -55 -33 -91t-88 -36q-53 0 -87 36t-34 91z" />
<glyph unicode="&#x3c;" horiz-adv-x="1220" d="M135 489v111l950 490v-142l-800 -401v-4l800 -402v-141z" />
<glyph unicode="=" horiz-adv-x="1220" d="M82 289v123h1057v-123h-1057zM82 690v123h1057v-123h-1057z" />
<glyph unicode="&#x3e;" horiz-adv-x="1220" d="M135 0v141l807 402v4l-807 401v142l950 -488v-115z" />
<glyph unicode="?" horiz-adv-x="831" d="M104 1321q113 82 293 82q166 0 254 -87t88 -214q0 -94 -43 -172t-133 -185q-125 -150 -117 -301l3 -53h-160l-4 53q-20 178 127 355q143 168 143 280q0 80 -50 127t-145 49q-123 0 -206 -63zM244 104q0 57 34.5 93t88 36t87 -35.5t33.5 -93.5q0 -55 -33.5 -91t-88.5 -36 q-53 0 -87 36t-34 91z" />
<glyph unicode="@" horiz-adv-x="1509" d="M88 426q0 326 208 556t540 230q264 0 430 -166.5t166 -424.5q0 -221 -106.5 -354.5t-258.5 -133.5q-68 0 -112 46t-40 134h-8q-106 -180 -289 -180q-92 0 -156.5 70.5t-64.5 187.5q0 197 138.5 341.5t347.5 144.5q125 0 219 -43l-70 -371q-45 -225 62 -230 q84 -2 152.5 102.5t68.5 272.5q0 227 -131 368.5t-365 141.5q-258 0 -436 -188.5t-178 -491.5q0 -252 147.5 -402.5t378.5 -150.5q182 0 309 72l33 -88q-156 -82 -364 -82q-260 0 -440.5 176t-180.5 463zM532 399q0 -70 35 -112.5t101 -42.5q84 0 158 88t92 190l43 232 q-47 14 -103 14q-135 0 -230.5 -109.5t-95.5 -259.5z" />
<glyph unicode="A" horiz-adv-x="1253" d="M51 0l469 1380h215l471 -1380h-190l-148 434h-489l-143 -434h-185zM416 573h415l-135 398q-29 84 -71 252h-4q-35 -143 -70 -250z" />
<glyph unicode="B" horiz-adv-x="1110" d="M156 4v1358q135 29 325 29q254 0 379 -101q115 -86 115 -243q0 -100 -62.5 -182.5t-171.5 -121.5v-4q115 -29 200 -116.5t85 -229.5q0 -164 -117 -276q-141 -129 -477 -129q-157 0 -276 16zM334 135q47 -8 149 -8q154 0 254.5 64.5t100.5 203.5q0 133 -99.5 200 t-257.5 67h-147v-527zM334 797h162q139 0 219 64.5t80 166.5q0 225 -303 225q-101 0 -158 -12v-444z" />
<glyph unicode="C" horiz-adv-x="1187" d="M74 678q0 324 199.5 524.5t521.5 200.5q211 0 327 -62l-43 -145q-119 57 -278 57q-246 0 -392.5 -150.5t-146.5 -418.5q0 -256 140.5 -405.5t390.5 -149.5q171 0 290 57l37 -141q-129 -65 -357 -65h-7q-301 0 -491.5 184t-190.5 514z" />
<glyph unicode="D" horiz-adv-x="1363" d="M156 4v1358q190 29 379 29q375 0 559 -172q195 -178 194 -496q0 -342 -198 -537q-198 -198 -607 -198h-4q-180 0 -323 16zM334 141q57 -10 180 -10q285 0 436.5 152.5t151.5 433.5v7q0 245 -140 384q-142 141 -419 141q-125 0 -209 -18v-1090z" />
<glyph unicode="E" horiz-adv-x="1007" d="M156 0v1380h745v-149h-567v-436h536v-148h-536v-497h598v-150h-776z" />
<glyph unicode="F" horiz-adv-x="997" d="M156 0v1380h743v-149h-565v-459h522v-147h-522v-625h-178z" />
<glyph unicode="G" horiz-adv-x="1323" d="M74 682q2 315 203.5 514t543.5 199q213 0 344 -64l-43 -145q-133 59 -305 59q-254 0 -404.5 -148.5t-150.5 -406.5q0 -260 144.5 -408.5t388.5 -148.5q164 0 237 37v412h-280v143h454v-664q-208 -75 -418 -75h-6q-326 0 -516 182q-193 186 -192 514z" />
<glyph unicode="H" horiz-adv-x="1335" d="M156 0v1380h178v-577h667v577h181v-1380h-181v647h-667v-647h-178z" />
<glyph unicode="I" horiz-adv-x="489" d="M156 0v1380h178v-1380h-178z" />
<glyph unicode="J" horiz-adv-x="757" d="M8 10l27 146q68 -27 149 -27q129 0 191.5 74.5t62.5 267.5v909h178v-923q0 -479 -417 -480q-111 0 -191 33z" />
<glyph unicode="K" horiz-adv-x="1110" d="M156 0v1380h178v-665h6q47 68 109 147l421 518h222l-500 -585l538 -795h-210l-455 678l-131 -152v-526h-178z" />
<glyph unicode="L" horiz-adv-x="966" d="M156 0v1380h178v-1230h590v-150h-768z" />
<glyph unicode="M" horiz-adv-x="1646" d="M119 0l96 1380h227l236 -667q94 -279 139 -465h6q45 182 146 465l245 667h228l86 -1380h-174l-35 606q-21 390 -21 567v29h-6q-70 -236 -174 -524l-244 -670h-135l-223 658q-109 326 -160 536h-4q-6 -270 -26 -610l-37 -592h-170z" />
<glyph unicode="N" horiz-adv-x="1347" d="M156 0v1380h194l443 -698q150 -236 247 -449l4 3q-20 231 -20 567v577h168v-1380h-180l-439 700q-170 270 -258 461l-6 -2q14 -244 15 -569v-590h-168z" />
<glyph unicode="O" horiz-adv-x="1411" d="M74 678q0 326 180 525.5t460.5 199.5t450.5 -194.5t170 -503.5q0 -344 -182 -536t-459 -192q-274 0 -447 195t-173 506zM264 682q0 -231 119 -395t322 -164q205 0 323.5 164t118.5 409q0 225 -115.5 393t-324.5 168q-211 0 -327 -166.5t-116 -408.5z" />
<glyph unicode="P" horiz-adv-x="1089" d="M156 0v1364q160 27 342 27q260 0 387 -115q121 -104 121 -288.5t-107 -295.5q-140 -151 -418 -151h-4q-94 0 -143 12v-553h-178zM334 698q55 -14 147 -14q164 0 255 77t91 218q0 133 -87 201.5t-238 68.5q-115 0 -168 -14v-537z" />
<glyph unicode="Q" horiz-adv-x="1411" d="M74 676q0 328 180 527.5t463 199.5q279 0 448.5 -194.5t169.5 -503.5q0 -258 -107.5 -429.5t-285.5 -232.5v-8q222 -55 404 -88l-52 -150q-281 74 -528 160q-57 20 -84 20q-260 10 -434 194.5t-174 504.5zM264 680v-8q0 -224 118 -385q119 -164 320 -164q207 0 326 164 t119 409q0 225 -114.5 393t-321.5 168q-215 0 -332 -169q-115 -165 -115 -400v-8z" />
<glyph unicode="R" horiz-adv-x="1101" d="M156 0v1362q139 29 342 29q274 0 399 -113q109 -96 109 -262q0 -131 -73 -222.5t-188 -129.5v-7q152 -53 203 -278q76 -319 107 -379h-185q-29 49 -92 330q-31 143 -93 203.5t-183 64.5h-168v-598h-178zM334 733h182q141 0 226 72t85 190q0 129 -85 192.5t-232 65.5 q-119 0 -176 -16v-504z" />
<glyph unicode="S" horiz-adv-x="1009" d="M86 68l45 149q145 -90 320 -90q135 0 211.5 64.5t76.5 170.5q0 96 -59 159t-201 116q-364 129 -364 390q0 165 123.5 270.5t322.5 105.5q186 0 305 -68l-49 -145q-119 65 -258 65h-4q-129 0 -194.5 -62.5t-65.5 -143.5q0 -94 62.5 -151.5t211.5 -115.5 q182 -70 267.5 -164t85.5 -241q0 -170 -125 -283.5t-359 -113.5q-98 0 -196.5 25.5t-155.5 62.5z" />
<glyph unicode="T" horiz-adv-x="1017" d="M-2 1229v151h1022v-151h-422v-1229h-180v1229h-420z" />
<glyph unicode="U" horiz-adv-x="1325" d="M154 567v813h180v-817q0 -221 88 -330.5t233 -109.5q160 0 248 108.5t88 331.5v817h180v-805q0 -303 -142 -450.5t-380 -147.5q-227 0 -361 142.5t-134 447.5z" />
<glyph unicode="V" horiz-adv-x="1142" d="M8 1380h193l215 -680q104 -330 147 -516h4q43 180 158 514l233 682h191l-494 -1380h-196z" />
<glyph unicode="W" horiz-adv-x="1732" d="M31 1380h188l164 -698q63 -268 102 -477h4q23 139 113 479l184 696h187l168 -700q74 -307 96 -473h4q27 143 111 477l182 696h182l-391 -1380h-186l-174 719q-66 272 -91 450h-4q-39 -213 -106 -450l-197 -719h-186z" />
<glyph unicode="X" horiz-adv-x="1169" d="M51 0l422 698l-405 682h206l183 -323q86 -150 127 -234h6q49 102 125 234l188 323h205l-420 -671l430 -709h-207l-176 305q-106 172 -160 273h-4q-61 -125 -149 -275l-166 -303h-205z" />
<glyph unicode="Y" horiz-adv-x="1107" d="M27 1380h202l195 -381q82 -160 137 -284h4q33 76 140 284l198 381h203l-463 -792v-588h-180v586z" />
<glyph unicode="Z" horiz-adv-x="1132" d="M61 0v104l766 1121v6h-700v149h932v-108l-762 -1116v-6h772v-150h-1008z" />
<glyph unicode="[" horiz-adv-x="581" d="M168 -229v1632h375v-113h-236v-1407h236v-112h-375z" />
<glyph unicode="\" horiz-adv-x="698" d="M4 1403h139l557 -1485h-139z" />
<glyph unicode="]" horiz-adv-x="581" d="M39 -117h235v1409h-235v113h375v-1634h-375v112z" />
<glyph unicode="^" horiz-adv-x="1220" d="M123 387l424 944h127l424 -944h-144l-342 795h-4l-342 -795h-143z" />
<glyph unicode="_" horiz-adv-x="1024" d="M0 -154h1024v-102h-1024v102z" />
<glyph unicode="`" horiz-adv-x="614" d="M45 1419h199l178 -293h-127z" />
<glyph unicode="a" horiz-adv-x="987" d="M72 262q0 180 154 276q151 94 430 93h12v20q0 229 -226 230q-143 0 -258 -74l-41 119q135 88 326 88q109 0 185.5 -35t116.5 -95.5t57.5 -127t17.5 -148.5v-370q0 -148 16 -238h-164l-14 125h-6q-45 -63 -124 -105.5t-179 -42.5q-143 0 -223 84t-80 201zM252 283 q0 -84 48 -128t122 -44q90 0 152.5 48t87.5 117q10 31 10 58v172h-28q-392 0 -392 -223z" />
<glyph unicode="b" horiz-adv-x="1165" d="M141 0q8 135 9 256v1198h178v-623h4q104 182 338 183q184 0 302 -140q115 -137 115 -355v-11q0 -250 -132 -390.5t-312 -140.5q-227 0 -332 187h-6l-8 -164h-156zM328 397q0 -25 8 -65q27 -94 100.5 -152.5t169.5 -58.5q139 0 220 104.5t81 276.5q0 158 -77.5 263 t-217.5 105q-94 0 -170.5 -60t-103.5 -161q-10 -51 -10 -74v-178z" />
<glyph unicode="c" horiz-adv-x="917" d="M78 485q0 231 146.5 379t385.5 148q147 0 250 -51l-41 -140q-82 47 -209 47q-164 0 -257 -106.5t-93 -267.5q0 -170 97.5 -270.5t246.5 -100.5q108 0 221 49l31 -135q-111 -57 -285 -57q-223 0 -358 139t-135 366z" />
<glyph unicode="d" horiz-adv-x="1155" d="M80 481v7q0 236 127 380q129 146 317 146q106 0 184 -43t115 -109h4v592h181v-1198q0 -166 8 -256h-162l-8 172h-4q-43 -86 -132 -140.5t-206 -54.5q-182 0 -303 140.5t-121 363.5zM262 489q0 -158 77 -262t216 -104q92 0 166 58.5t98 156.5q8 33 8 78v172q0 45 -8 76 q-20 90 -91 149t-169 59q-137 0 -217 -107.5t-80 -275.5z" />
<glyph unicode="e" horiz-adv-x="1026" d="M78 479q0 229 127 382t338 153q115 0 199.5 -46t127.5 -121t62.5 -149.5t19.5 -150.5q0 -29 -6 -84h-696q2 -172 98 -258t242 -86q154 0 274 51l31 -129q-135 -61 -330 -61q-227 0 -357 136t-130 363zM252 592h526v7q0 107 -56 195q-58 91 -194 91q-125 0 -194.5 -90 t-81.5 -203z" />
<glyph unicode="f" horiz-adv-x="598" d="M29 854v137h139v47q0 238 115 346q94 92 241 93q84 0 154 -29l-25 -139q-47 22 -109 22h-5q-193 0 -193 -287v-53h240v-137h-240v-854h-178v854h-139z" />
<glyph unicode="g" horiz-adv-x="1144" d="M78 487q0 240 133 383.5t313 143.5q219 0 310 -172h4l8 149h158q-8 -143 -9 -272v-576q0 -326 -141 -452q-127 -119 -360 -119q-207 0 -330 82l45 137q125 -78 291 -78q147 0 233 84t86 262v111h-4q-100 -166 -315 -166q-182 0 -302 138.5t-120 344.5zM260 498 q0 -154 77 -255.5t216 -101.5q84 0 152.5 50.5t97.5 134.5q14 43 14 96v178q0 51 -10 82q-27 84 -92.5 137t-159.5 53q-131 0 -213 -102t-82 -272z" />
<glyph unicode="h" horiz-adv-x="1136" d="M150 0v1454h180v-618h4q45 80 129 127q88 51 184 51q57 0 111.5 -19.5t111 -63.5t90 -132t33.5 -209v-590h-180v569q0 131 -55.5 213t-173.5 82q-84 0 -149.5 -51t-92.5 -129q-12 -29 -12 -86v-598h-180z" />
<glyph unicode="i" horiz-adv-x="479" d="M127 1270q0 47 31.5 79.5t81 32.5t80 -31.5t30.5 -80.5v-6q0 -43 -30 -73q-32 -32 -84 -32q-47 0 -78 32t-31 79zM150 0v991h180v-991h-180z" />
<glyph unicode="j" horiz-adv-x="497" d="M-92 -287q137 10 196 76q39 45 53.5 122t14.5 251v829h180v-899q0 -287 -119 -407q-55 -55 -141 -84t-166 -29zM150 1270q0 49 31.5 80.5t82.5 31.5q49 0 79 -31.5t30 -80.5v-5q0 -44 -30 -74q-32 -32 -83 -32q-49 0 -79.5 33t-30.5 78z" />
<glyph unicode="k" horiz-adv-x="960" d="M150 0v1454h178v-917h4q29 41 88 112l291 342h217l-383 -407l436 -584h-219l-342 475l-92 -102v-373h-178z" />
<glyph unicode="l" horiz-adv-x="483" d="M150 0v1454h180v-1454h-180z" />
<glyph unicode="m" horiz-adv-x="1708" d="M141 991h158l8 -160h6q106 182 312 183q98 0 172.5 -54.5t107.5 -144.5h4q43 80 111 129q92 70 219 70q55 0 107.5 -20.5t103.5 -64.5t83 -133t32 -212v-584h-176v561q0 305 -215 305q-74 0 -131.5 -47t-81.5 -117q-14 -43 -15 -90v-612h-176v594q0 123 -53 197.5 t-154 74.5q-80 0 -140.5 -53t-82.5 -127q-14 -37 -14 -88v-598h-176v723q0 160 -9 268z" />
<glyph unicode="n" horiz-adv-x="1136" d="M141 991h160l10 -164h4q41 78 127 132.5t201 54.5q57 0 113.5 -19.5t112 -63.5t90 -131t34.5 -208v-592h-180v571q0 131 -55.5 212t-173.5 81q-86 0 -151.5 -53t-90.5 -131q-12 -33 -12 -84v-596h-180v723q0 160 -9 268z" />
<glyph unicode="o" horiz-adv-x="1124" d="M78 487q0 242 139 384.5t352 142.5t345.5 -141.5t132.5 -368.5q0 -256 -146.5 -391.5t-347.5 -135.5q-205 0 -340 139.5t-135 370.5zM260 494q0 -164 85 -272.5t216 -108.5q129 0 215 109.5t86 275.5q0 90 -28.5 173t-98.5 145.5t-170 62.5q-150 0 -227.5 -114 t-77.5 -271z" />
<glyph unicode="p" horiz-adv-x="1165" d="M141 991h162l8 -170h4q117 193 353 193q182 0 300.5 -140.5t118.5 -363.5q0 -254 -131 -393.5t-319 -139.5q-98 0 -179 41t-126 115h-4v-539h-178v1074q0 135 -9 323zM328 403q0 -29 8 -73q25 -94 99.5 -152.5t170.5 -58.5q141 0 221 104.5t80 278.5q0 156 -78.5 262 t-216.5 106q-94 0 -169.5 -61t-102.5 -162q-12 -45 -12 -74v-170z" />
<glyph unicode="q" horiz-adv-x="1153" d="M78 479q0 258 136 396.5t312 138.5q217 0 305 -172h5l6 149h170q-6 -127 -6 -272v-1125h-181v560h-4q-43 -78 -126 -127.5t-197 -49.5q-178 0 -299 140.5t-121 361.5zM260 489q0 -158 76 -263t217 -105q88 0 157.5 52t100.5 144q14 43 14 86v187q0 45 -8 76 q-20 86 -90 145t-168 59q-137 0 -218 -105.5t-81 -275.5z" />
<glyph unicode="r" horiz-adv-x="669" d="M141 991h158l6 -194h8q33 100 109 158.5t166 58.5q27 0 51 -6v-170q-27 6 -61 6q-94 0 -159 -63.5t-83 -168.5q-8 -49 -8 -84v-528h-178v682q0 186 -9 309z" />
<glyph unicode="s" horiz-adv-x="811" d="M80 47l45 137q109 -71 234 -71h3q94 0 143.5 41t49.5 106q0 63 -42 104.5t-142 77.5q-262 94 -262 281q0 123 93 207t249 84q139 0 243 -62l-45 -131q-90 57 -203 58q-78 0 -121.5 -39t-43.5 -97q0 -59 42 -94t146 -74q133 -51 196.5 -120.5t63.5 -178.5 q0 -133 -98.5 -214.5t-272.5 -81.5h-5q-160 0 -273 67z" />
<glyph unicode="t" horiz-adv-x="677" d="M37 854v137h153v238l177 47v-285h258v-137h-258v-535q0 -192 134 -192h1q59 0 104 12l8 -135q-57 -24 -151 -24h-8q-129 0 -195 75q-70 72 -70 258v541h-153z" />
<glyph unicode="u" horiz-adv-x="1128" d="M143 412v579h181v-549q0 -315 221 -315q84 0 147.5 48t89.5 116q16 43 17 92v608h180v-721q0 -166 8 -270h-160l-10 162h-4q-43 -74 -126 -129.5t-202 -55.5q-63 0 -119.5 19.5t-108.5 66t-83 135.5t-31 214z" />
<glyph unicode="v" horiz-adv-x="985" d="M27 991h192l195 -557q53 -143 80 -254h6q27 94 84 254l192 557h189l-390 -991h-172z" />
<glyph unicode="w" horiz-adv-x="1507" d="M37 991h184l131 -504q55 -213 74 -315h6q23 100 88 313l162 506h152l153 -495q55 -180 88 -324h6q20 123 76 322l141 497h179l-320 -991h-164l-151 473q-59 186 -88 326h-4q-29 -141 -91 -328l-159 -471h-164z" />
<glyph unicode="x" horiz-adv-x="948" d="M16 0l353 506l-336 485h200l142 -213q41 -61 100 -162h6q23 39 99 164l139 211h194l-338 -479l349 -512h-205l-146 223q-41 61 -106 172h-4q-18 -35 -105 -172l-143 -223h-199z" />
<glyph unicode="y" horiz-adv-x="964" d="M18 991h197l217 -585q39 -111 64 -203h4q2 6 25.5 85t37.5 122l197 581h190l-270 -706q-100 -264 -175 -403.5t-165 -217.5q-109 -96 -221 -117l-45 152q86 27 157 88q96 76 152 201q14 33 14 43q0 14 -12 47z" />
<glyph unicode="z" horiz-adv-x="876" d="M37 0v104l448 584q20 25 129 154v4h-536v145h756l-3 -112l-442 -576q-53 -72 -127 -156v-4h580v-143h-805z" />
<glyph unicode="{" horiz-adv-x="581" d="M57 537v104q98 0 132 42t34 110q0 57 -16.5 171.5t-16.5 170.5q0 135 80 201.5t217 66.5h43v-113h-36q-162 0 -162 -176q0 -59 14 -145q14 -90 14 -156q2 -180 -147 -221v-4q150 -37 147 -223q0 -70 -14 -156q-14 -90 -14 -148q0 -178 162 -178h36v-112h-43 q-297 0 -297 280q0 57 16.5 168t16.5 166q0 152 -166 152z" />
<glyph unicode="|" horiz-adv-x="489" d="M176 -512v2048h137v-2048h-137z" />
<glyph unicode="}" horiz-adv-x="581" d="M51 -117h35q164 2 164 178q0 29 -14 148q-16 98 -17 156q0 186 148 223v4q-147 41 -148 221q0 53 17 156q14 115 14 145q0 174 -162 176h-37v113h41q137 0 218 -66.5t81 -201.5q0 -55 -16.5 -170t-16.5 -172q0 -68 34 -110t132 -42v-104q-166 0 -166 -152 q0 -55 16.5 -165.5t16.5 -168.5q0 -281 -297 -280h-43v112z" />
<glyph unicode="~" horiz-adv-x="1220" d="M106 430q-6 147 64 228t180 81q61 0 119.5 -19.5t169.5 -72.5q182 -86 256 -86q106 0 111 172h122q6 -160 -61.5 -234.5t-173.5 -74.5q-102 0 -297 90q-12 6 -40 19.5t-39 19.5t-33.5 16.5t-36 14.5t-32 10t-33.5 8t-32 2q-117 0 -123 -174h-121z" />
<glyph unicode="&#xa1;" horiz-adv-x="471" d="M115 872.5q0 55.5 34.5 91t88 35.5t86 -35.5t32.5 -91t-32.5 -91.5t-87.5 -36q-53 0 -87 36t-34 91.5zM137 -406l29 977h139l31 -977h-199z" />
<glyph unicode="&#xa2;" d="M137 668q0 199 112.5 337t299.5 169v204h127v-200q125 0 223 -52l-41 -137q-86 51 -213 51q-147 0 -237.5 -104.5t-90.5 -259.5q0 -166 90.5 -263.5t229.5 -97.5q121 0 233 52l33 -129q-98 -53 -227 -60v-207h-127v207q-186 23 -297 144q-115 129 -115 346z" />
<glyph unicode="&#xa3;" d="M115 0v102q104 53 168.5 149.5t64.5 209.5q0 76 -10 143h-211v129h190q-23 135 -22 221q0 180 110.5 290t282.5 110q141 0 223 -51l-41 -136q-74 41 -182 41q-115 0 -170 -69.5t-55 -186.5q0 -88 24 -219h295v-129h-278q12 -150 -8 -229q-33 -129 -142 -221v-4h611v-150 h-850z" />
<glyph unicode="&#xa4;" d="M59 1071l91 94l141 -155q94 84 233 84q141 0 238 -82l145 153l90 -94l-159 -145q72 -102 71 -240q0 -152 -71 -252l153 -151l-92 -90l-139 157q-90 -88 -240 -88q-145 0 -233 82l-137 -151l-89 90l148 145q-76 98 -76 246q0 145 80 252zM279 676q0 -137 75.5 -211 t165.5 -74q98 0 171 74t73 219q0 115 -64.5 198t-177.5 83q-111 0 -177 -83t-66 -206z" />
<glyph unicode="&#xa5;" d="M33 1331h192l213 -422q49 -104 82 -186h6q33 92 82 190l221 418h189l-367 -620h267v-103h-320v-147h320v-103h-320v-358h-170v358h-317v103h317v147h-317v103h266z" />
<glyph unicode="&#xa6;" horiz-adv-x="489" d="M176 356h137v-716h-137v716zM176 664v716h137v-716h-137z" />
<glyph unicode="&#xa7;" horiz-adv-x="1062" d="M121 696q0 143 149 240q-72 57 -75 172q0 131 108.5 211t270 80t282.5 -68l-43 -117q-106 66 -246 66q-92 0 -152.5 -42t-60.5 -110q0 -74 59.5 -112.5t196.5 -83.5q162 -53 248 -125t86 -199q0 -145 -133 -248q78 -63 78 -180q0 -152 -116 -229.5t-273 -77.5 q-205 0 -322 86l49 117q119 -84 271 -84q102 0 165.5 44t63.5 124q0 72 -53 118t-197 95q-180 61 -268 130.5t-88 192.5zM266 719q0 -57 50.5 -104.5t166.5 -90.5q180 -63 234 -98q78 55 78 158q0 127 -183 190q-207 78 -252 105q-94 -68 -94 -160z" />
<glyph unicode="&#xa8;" horiz-adv-x="614" d="M14 1272q0 43 31 73.5t74 30.5t71.5 -29.5t28.5 -74.5q0 -43 -28.5 -74t-71.5 -31q-45 0 -75 31t-30 74zM395 1272q0 43 30 73.5t73 30.5t71.5 -29.5t28.5 -74.5q0 -43 -28.5 -74t-71.5 -31q-45 0 -74 31t-29 74z" />
<glyph unicode="&#xa9;" horiz-adv-x="1386" d="M74 696q0 262 181 446.5t441 184.5q258 0 437.5 -184.5t179.5 -446.5q0 -264 -179.5 -449.5t-437.5 -185.5q-260 0 -441 185.5t-181 449.5zM176 690q0 -229 149.5 -387t370.5 -158q217 0 365.5 159t148.5 392q0 229 -148.5 388t-365.5 159q-221 0 -370.5 -159.5 t-149.5 -393.5zM354 684q0 170 115 275.5t276 105.5q74 0 138.5 -17.5t87.5 -37.5l-25 -80q-88 47 -198 47q-139 0 -213 -79t-74 -208q0 -125 75.5 -207t213.5 -82q125 0 206 54l25 -78q-96 -63 -252 -64q-174 0 -274.5 105.5t-100.5 265.5z" />
<glyph unicode="&#xaa;" horiz-adv-x="708" d="M68 729q0 113 108.5 175.5t302.5 58.5v20q0 23 -9 48.5t-46 52t-96 26.5q-106 0 -176 -55l-33 88q94 68 233 67q260 0 260 -286v-219q1 -86 13 -160h-123l-13 86h-4q-76 -96 -206 -96q-98 0 -154.5 55t-56.5 139zM203 737q0 -49 34.5 -76.5t84.5 -27.5q88 0 139 74 q20 35 20 55v112q-279 4 -278 -137z" />
<glyph unicode="&#xab;" horiz-adv-x="858" d="M59 516l271 377h145l-274 -377l274 -377h-145zM395 516l271 377h145l-274 -377l274 -377h-145z" />
<glyph unicode="&#xac;" horiz-adv-x="1220" d="M82 694v123h1057v-569h-131v446h-926z" />
<glyph unicode="&#xad;" horiz-adv-x="628" d="M61 487v134h506v-134h-506z" />
<glyph unicode="&#xae;" horiz-adv-x="858" d="M84 1067q0 139 101.5 237.5t244.5 98.5q145 0 244.5 -97.5t99.5 -238.5q0 -143 -99.5 -241.5t-244.5 -98.5t-245.5 98.5t-100.5 241.5zM170 1067q0 -113 74.5 -190.5t187.5 -77.5q111 0 183.5 76.5t72.5 189.5t-73.5 191.5t-184.5 78.5t-185.5 -77.5t-74.5 -190.5z M299 891v336q51 10 129 10q74 0 117 -25q33 -25 33 -73q0 -57 -70 -78v-4q47 -18 61 -82q14 -68 25 -84h-84q-8 8 -27 82q-8 53 -69 53h-37v-135h-78zM379 1081h37q78 0 78 49q0 51 -72 52q-27 0 -43 -4v-97z" />
<glyph unicode="&#xaf;" horiz-adv-x="614" d="M78 1200v117h461v-117h-461z" />
<glyph unicode="&#xb0;" horiz-adv-x="651" d="M61 1126q-2 117 78 197t195 80q121 0 195.5 -79t74.5 -187q0 -121 -82 -198t-192 -77q-117 0 -193 77t-76 187zM172 1126.5q0 -71.5 46 -120t114 -48.5q70 0 116 50.5t46 126.5q0 66 -41 119t-121 53q-76 0 -118 -54.5t-42 -126z" />
<glyph unicode="&#xb1;" horiz-adv-x="1220" d="M82 0v123h1057v-123h-1057zM82 649v123h463v399h131v-399h463v-123h-463v-409h-131v409h-463z" />
<glyph unicode="&#xb2;" horiz-adv-x="636" d="M25 907v76l129 119q139 127 198.5 204.5t59.5 151.5q0 61 -40 101t-116 40q-86 0 -172 -63l-43 94q106 86 250 86q133 0 202.5 -69.5t69.5 -161.5q0 -106 -66.5 -194.5t-205.5 -209.5l-64 -57v-4h351v-113h-553z" />
<glyph unicode="&#xb3;" horiz-adv-x="624" d="M18 952l37 103q86 -53 191 -54q88 0 134 42t44 96q0 74 -63.5 109.5t-153.5 35.5h-55v94h57q68 0 126 33t60 96q0 43 -31.5 73t-97.5 30q-94 -1 -174 -56l-35 97q100 66 236 65q125 0 187.5 -56t62.5 -138q0 -61 -42 -109.5t-116 -75.5v-4q84 -10 137 -65.5t53 -130.5 q0 -100 -87 -170t-236 -70q-152 0 -234 55z" />
<glyph unicode="&#xb4;" horiz-adv-x="614" d="M207 1126l180 293h199l-250 -293h-129z" />
<glyph unicode="&#xb5;" horiz-adv-x="1132" d="M150 -41v1032h178v-585q0 -123 55 -202t168 -79q84 0 147.5 49t89.5 117q16 43 17 92v608h178v-719q0 -82 20.5 -117.5t73.5 -37.5l-14 -131q-27 -8 -62 -9q-153 1 -176 177h-6q-37 -70 -110.5 -121t-173.5 -51q-156 0 -218 108v-123q0 -283 23 -373h-162q-29 86 -28 365 z" />
<glyph unicode="&#xb6;" horiz-adv-x="1048" d="M70 934q0 86 26.5 160.5t86 142.5t175 107.5t275.5 39.5q162 0 239 -18v-1466h-127v1360h-145v-1360h-129v641h-14q-139 0 -263 106.5t-124 286.5z" />
<glyph unicode="&#xb7;" horiz-adv-x="423" d="M92 539q0 55 35 92t88 37t86 -36t35 -93q0 -55 -34 -92t-89 -37q-53 0 -88 36.5t-33 92.5z" />
<glyph unicode="&#xb8;" horiz-adv-x="614" d="M113 -375l30 88q49 -31 111 -30q88 0 88 65q-2 72 -160 86l97 170h110l-67 -106q59 -8 101 -47t42 -95q0 -86 -60.5 -126t-152.5 -40q-80 0 -139 35z" />
<glyph unicode="&#xb9;" horiz-adv-x="499" d="M45 1616l193 90h124v-799h-143v672h-4l-147 -70z" />
<glyph unicode="&#xba;" horiz-adv-x="727" d="M37 866q0 156 96.5 250t233.5 94q147 0 235 -93t88 -240q-2 -166 -99 -254t-229 -88q-139 0 -232 92t-93 239zM174 870q0 -100 56.5 -166.5t134.5 -66.5q82 0 135 65.5t53 169.5q0 90 -49 163t-141.5 73t-140.5 -71.5t-48 -166.5z" />
<glyph unicode="&#xbb;" horiz-adv-x="858" d="M47 893h146l272 -377l-272 -377h-144l273 377zM381 893h145l273 -377l-273 -377h-143l272 377z" />
<glyph unicode="&#xbc;" horiz-adv-x="1554" d="M88 1253l193 90h125v-798h-144v674h-4l-147 -72zM283 -23l778 1377h115l-779 -1377h-114zM834 211v82l364 510h162v-492h113v-100h-113v-211h-139v211h-387zM977 311h244v242q0 6 6 129h-4q-39 -76 -70 -121l-176 -246v-4z" />
<glyph unicode="&#xbd;" horiz-adv-x="1554" d="M59 1253l191 90h127v-798h-144v674h-4l-147 -72zM244 -23l776 1377h117l-779 -1377h-114zM901 0v76l129 121q139 125 198.5 202.5t59.5 151.5q0 61 -40 102t-115 41q-80 0 -172 -63l-43 92q100 86 249 86q135 0 204 -68.5t69 -162.5q0 -104 -65.5 -192.5t-207.5 -211.5 l-63 -57v-4h350v-113h-553z" />
<glyph unicode="&#xbe;" horiz-adv-x="1554" d="M61 592l37 102q78 -53 191 -53q88 0 134 42t46 95q-2 72 -65.5 108t-151.5 36h-57v94h57q70 0 128 32.5t58 98.5q0 41 -32.5 70.5t-96.5 29.5q-96 0 -174 -53l-35 96q98 63 236 64q125 0 187.5 -55.5t62.5 -137.5q0 -61 -42 -110.5t-114 -73.5v-4q84 -12 136 -66.5 t52 -132.5q0 -100 -86 -169.5t-235 -69.5q-147 0 -236 57zM358 -23l779 1377h114l-778 -1377h-115zM856 211v82l363 510h161v-492h115v-100h-115v-211h-137v211h-387zM997 315l2 -4h244v242q0 6 6 129h-4q-39 -76 -69 -121z" />
<glyph unicode="&#xbf;" horiz-adv-x="831" d="M113 -121q0 94 44 171t134 181q123 152 115 299l-3 54h160l6 -54q18 -172 -129 -350q-76 -90 -108.5 -151.5t-32.5 -126.5q0 -80 49 -127t146 -47q125 0 206 63l50 -131q-121 -82 -295 -82q-166 0 -254 87t-88 214zM365 874.5q0 55.5 33.5 91t86.5 35.5q55 0 88 -35.5 t33 -91t-33.5 -92.5t-87 -37t-87 37t-33.5 92.5z" />
<glyph unicode="&#xc0;" horiz-adv-x="1253" d="M51 0l469 1380h215l471 -1380h-190l-148 434h-489l-143 -434h-185zM328 1694h219l188 -238h-145zM416 573h415l-135 398q-29 84 -71 252h-4q-35 -143 -70 -250z" />
<glyph unicode="&#xc1;" horiz-adv-x="1253" d="M51 0l469 1380h215l471 -1380h-190l-148 434h-489l-143 -434h-185zM416 573h415l-135 398q-29 84 -71 252h-4q-35 -143 -70 -250zM522 1454l191 240h217l-260 -240h-148z" />
<glyph unicode="&#xc2;" horiz-adv-x="1253" d="M51 0l469 1380h215l471 -1380h-190l-148 434h-489l-143 -434h-185zM356 1454l209 234h137l216 -234h-152l-129 141h-4l-131 -141h-146zM416 573h415l-135 398q-29 84 -71 252h-4q-35 -143 -70 -250z" />
<glyph unicode="&#xc3;" horiz-adv-x="1253" d="M51 0l469 1380h215l471 -1380h-190l-148 434h-489l-143 -434h-185zM379 1464q-2 94 36 151.5t103 57.5q45 0 123 -41q66 -37 96 -37q27 0 40.5 16.5t15.5 63.5h96q4 -199 -139 -198q-47 0 -125 39q-74 39 -97 38q-43 0 -53 -90h-96zM416 573h415l-135 398q-29 84 -71 252 h-4q-35 -143 -70 -250z" />
<glyph unicode="&#xc4;" horiz-adv-x="1253" d="M51 0l469 1380h215l471 -1380h-190l-148 434h-489l-143 -434h-185zM344 1577q0 43 28.5 72.5t73.5 29.5q41 0 69 -29.5t28 -72.5q0 -45 -28 -74.5t-71 -29.5t-71.5 30.5t-28.5 73.5zM416 573h415l-135 398q-29 84 -71 252h-4q-35 -143 -70 -250zM725 1577q0 43 28.5 72.5 t71.5 29.5t71 -29.5t28 -72.5q0 -45 -28 -74.5t-73 -29.5q-43 0 -70.5 29.5t-27.5 74.5z" />
<glyph unicode="&#xc5;" horiz-adv-x="1253" d="M51 0l469 1380h215l471 -1380h-190l-148 434h-489l-143 -434h-185zM416 573h415l-135 398q-29 84 -71 252h-4q-35 -143 -70 -250zM426 1612q0 80 56.5 133t148.5 53t147.5 -53t55.5 -131t-57.5 -130t-145.5 -52q-92 0 -148.5 52t-56.5 128zM530 1612q0 -41 28 -73t71 -32 t70.5 32t27.5 77t-27.5 76.5t-70.5 31.5q-45 0 -72 -32.5t-27 -79.5z" />
<glyph unicode="&#xc6;" horiz-adv-x="1613" d="M-2 0l631 1380h864v-149h-588l53 -440h515v-148h-492l61 -493h506v-150h-659l-62 487h-424l-221 -487h-184zM463 631h344l-45 397q-23 172 -25 223h-8q-20 -57 -88 -217z" />
<glyph unicode="&#xc7;" horiz-adv-x="1187" d="M74 678q0 324 199.5 524.5t521.5 200.5q211 0 327 -62l-43 -145q-119 57 -278 57q-246 0 -392.5 -150.5t-146.5 -418.5q0 -256 140.5 -405.5t390.5 -149.5q171 0 290 57l37 -141q-131 -66 -362 -65l-47 -82q61 -12 102 -53.5t41 -100.5q0 -84 -61.5 -125t-149.5 -41 q-86 0 -145 35l28 92q49 -27 115 -27q86 0 86 62q0 72 -160 88l86 158q-262 33 -420.5 212t-158.5 480z" />
<glyph unicode="&#xc8;" horiz-adv-x="1007" d="M156 0v1380h745v-149h-567v-436h536v-148h-536v-497h598v-150h-776zM244 1694h217l190 -238h-147z" />
<glyph unicode="&#xc9;" horiz-adv-x="1007" d="M156 0v1380h745v-149h-567v-436h536v-148h-536v-497h598v-150h-776zM428 1454l190 240h218l-261 -240h-147z" />
<glyph unicode="&#xca;" horiz-adv-x="1007" d="M156 0v1380h745v-149h-567v-436h536v-148h-536v-497h598v-150h-776zM246 1454l211 234h137l215 -234h-152l-131 141h-4l-129 -141h-147z" />
<glyph unicode="&#xcb;" horiz-adv-x="1007" d="M156 0v1380h745v-149h-567v-436h536v-148h-536v-497h598v-150h-776zM231 1581q0 41 30 71.5t73 30.5t70.5 -29.5t27.5 -72.5q0 -45 -27.5 -74.5t-70.5 -29.5q-45 0 -74 30.5t-29 73.5zM612 1581q0 43 29 72.5t72 29.5t71.5 -29.5t28.5 -72.5q0 -45 -27.5 -74.5 t-72.5 -29.5q-43 0 -72 30.5t-29 73.5z" />
<glyph unicode="&#xcc;" horiz-adv-x="489" d="M-51 1694h217l188 -238h-145zM156 0v1380h178v-1380h-178z" />
<glyph unicode="&#xcd;" horiz-adv-x="489" d="M137 1454l189 240h219l-262 -240h-146zM156 0v1380h178v-1380h-178z" />
<glyph unicode="&#xce;" horiz-adv-x="489" d="M-35 1454l209 234h137l215 -234h-149l-131 141h-4l-131 -141h-146zM156 0v1380h178v-1380h-178z" />
<glyph unicode="&#xcf;" horiz-adv-x="489" d="M-45 1581q0 41 29.5 71.5t72.5 30.5t71 -29.5t28 -72.5q0 -45 -28 -74.5t-71 -29.5q-45 0 -73.5 30.5t-28.5 73.5zM156 0v1380h178v-1380h-178zM336 1581q0 43 29.5 72.5t72.5 29.5t71 -29.5t28 -72.5q0 -45 -28 -74.5t-73 -29.5q-43 0 -71.5 30.5t-28.5 73.5z" />
<glyph unicode="&#xd0;" horiz-adv-x="1374" d="M-4 629v143h170v594q180 31 379 31q375 0 559 -172q195 -178 194 -502q0 -340 -198.5 -538.5t-610.5 -198.5q-197 0 -323 14v629h-170zM344 137q59 -8 178 -8q289 0 439.5 152.5t150.5 439.5q2 252 -140.5 392t-418.5 140q-125 0 -209 -18v-463h369v-143h-369v-492z" />
<glyph unicode="&#xd1;" horiz-adv-x="1347" d="M156 0v1380h194l443 -698q150 -236 247 -449l4 3q-20 231 -20 567v577h168v-1380h-180l-439 700q-170 270 -258 461l-6 -2q14 -244 15 -569v-590h-168zM430 1464q-4 94 34 151.5t105 57.5q43 0 121 -41q66 -37 98 -37q25 0 38.5 16.5t17.5 63.5h94q4 -199 -137 -198 q-47 0 -125 39q-74 39 -96 38q-48 0 -54 -90h-96z" />
<glyph unicode="&#xd2;" horiz-adv-x="1411" d="M74 678q0 326 180 525.5t460.5 199.5t450.5 -194.5t170 -503.5q0 -344 -182 -536t-459 -192q-274 0 -447 195t-173 506zM264 682q0 -231 119 -395t322 -164q205 0 323.5 164t118.5 409q0 225 -115.5 393t-324.5 168q-211 0 -327 -166.5t-116 -408.5zM408 1698h219 l188 -238h-145z" />
<glyph unicode="&#xd3;" horiz-adv-x="1411" d="M74 678q0 326 180 525.5t460.5 199.5t450.5 -194.5t170 -503.5q0 -344 -182 -536t-459 -192q-274 0 -447 195t-173 506zM264 682q0 -231 119 -395t322 -164q205 0 323.5 164t118.5 409q0 225 -115.5 393t-324.5 168q-211 0 -327 -166.5t-116 -408.5zM596 1460l190 238 h218l-261 -238h-147z" />
<glyph unicode="&#xd4;" horiz-adv-x="1411" d="M74 678q0 326 180 525.5t460.5 199.5t450.5 -194.5t170 -503.5q0 -344 -182 -536t-459 -192q-274 0 -447 195t-173 506zM264 682q0 -231 119 -395t322 -164q205 0 323.5 164t118.5 409q0 225 -115.5 393t-324.5 168q-211 0 -327 -166.5t-116 -408.5zM424 1460l211 234 h137l215 -234h-151l-131 142h-5l-129 -142h-147z" />
<glyph unicode="&#xd5;" horiz-adv-x="1411" d="M74 678q0 326 180 525.5t460.5 199.5t450.5 -194.5t170 -503.5q0 -344 -182 -536t-459 -192q-274 0 -447 195t-173 506zM264 682q0 -231 119 -395t322 -164q205 0 323.5 164t118.5 409q0 225 -115.5 393t-324.5 168q-211 0 -327 -166.5t-116 -408.5zM451 1468 q-4 94 33.5 151.5t105.5 57.5q49 0 121 -41q66 -37 98 -37q25 0 38 16.5t17 63.5h94q4 -199 -137 -198q-47 0 -125 39q-74 39 -96 39q-47 -1 -53 -91h-96z" />
<glyph unicode="&#xd6;" horiz-adv-x="1411" d="M74 678q0 326 180 525.5t460.5 199.5t450.5 -194.5t170 -503.5q0 -344 -182 -536t-459 -192q-274 0 -447 195t-173 506zM264 682q0 -231 119 -395t322 -164q205 0 323.5 164t118.5 409q0 225 -115.5 393t-324.5 168q-211 0 -327 -166.5t-116 -408.5zM416 1581 q0 43 28.5 72.5t71.5 29.5t70.5 -29.5t27.5 -72.5q0 -45 -27.5 -74.5t-70.5 -29.5q-45 0 -72.5 29.5t-27.5 74.5zM795 1581q0 43 29.5 72.5t72.5 29.5t70.5 -29.5t27.5 -72.5q0 -45 -27.5 -74.5t-72.5 -29.5q-43 0 -71.5 30.5t-28.5 73.5z" />
<glyph unicode="&#xd7;" horiz-adv-x="1220" d="M82 90l438 449l-438 448l90 90l438 -448l439 448l90 -90l-441 -448l441 -449l-90 -90l-439 449l-438 -449z" />
<glyph unicode="&#xd8;" horiz-adv-x="1411" d="M74 682q0 322 181 521.5t456 199.5q195 0 344 -109l121 166l108 -74l-127 -176q178 -195 178 -508q0 -344 -181 -534.5t-445 -190.5q-199 0 -351 111l-129 -176l-100 80l127 180q-182 195 -182 510zM256 692q0 -193 102 -370l2 2l607 839q-113 96 -258 97 q-213 0 -333 -167t-120 -401zM446 219q104 -98 259 -98q209 0 328.5 166t119.5 409q0 201 -96 359h-6z" />
<glyph unicode="&#xd9;" horiz-adv-x="1325" d="M154 567v813h180v-817q0 -221 88 -330.5t233 -109.5q160 0 248 108.5t88 331.5v817h180v-805q0 -303 -142 -450.5t-380 -147.5q-227 0 -361 142.5t-134 447.5zM375 1694h217l190 -238h-147z" />
<glyph unicode="&#xda;" horiz-adv-x="1325" d="M154 567v813h180v-817q0 -221 88 -330.5t233 -109.5q160 0 248 108.5t88 331.5v817h180v-805q0 -303 -142 -450.5t-380 -147.5q-227 0 -361 142.5t-134 447.5zM561 1454l189 240h219l-262 -240h-146z" />
<glyph unicode="&#xdb;" horiz-adv-x="1325" d="M154 567v813h180v-817q0 -221 88 -330.5t233 -109.5q160 0 248 108.5t88 331.5v817h180v-805q0 -303 -142 -450.5t-380 -147.5q-227 0 -361 142.5t-134 447.5zM395 1454l209 234h137l215 -234h-151l-129 141h-4l-131 -141h-146z" />
<glyph unicode="&#xdc;" horiz-adv-x="1325" d="M154 567v813h180v-817q0 -221 88 -330.5t233 -109.5q160 0 248 108.5t88 331.5v817h180v-805q0 -303 -142 -450.5t-380 -147.5q-227 0 -361 142.5t-134 447.5zM377 1581q0 41 29.5 71.5t72.5 30.5q41 0 70 -29.5t29 -72.5t-29 -73.5t-72 -30.5t-71.5 30.5t-28.5 73.5z M758 1581q0 43 28.5 72.5t71.5 29.5t70.5 -29.5t27.5 -72.5q0 -45 -27.5 -74.5t-70.5 -29.5q-45 0 -72.5 29.5t-27.5 74.5z" />
<glyph unicode="&#xdd;" horiz-adv-x="1107" d="M27 1380h202l195 -381q82 -160 137 -284h4q33 76 140 284l198 381h203l-463 -792v-588h-180v586zM465 1444l190 237h217l-260 -237h-147z" />
<glyph unicode="&#xde;" horiz-adv-x="1087" d="M156 0v1380h176v-270q88 16 196 16q236 0 365 -112q113 -106 113 -269q0 -211 -142.5 -323.5t-376.5 -112.5q-84 0 -155 10v-319h-176zM332 465q57 -12 153 -12q164 0 253 73.5t89 200.5q0 129 -84 193.5t-231 64.5q-114 0 -180 -16v-504z" />
<glyph unicode="&#xdf;" horiz-adv-x="1122" d="M150 0v926q0 313 145 446q117 104 301 105q154 0 259.5 -92.5t105.5 -254.5q0 -100 -48 -167q-147 -61 -147 -166q0 -33 14.5 -65t32.5 -52.5t57 -61.5q53 -53 82 -86.5t56.5 -96t27.5 -132.5q0 -145 -99 -235.5t-267 -90.5q-133 0 -217 43l32 138q82 -41 172 -41 q94 0 147.5 49t53.5 123q0 109 -110 211q-80 76 -120 135t-40 137q0 162 182 252q18 45 18 88q0 104 -58 163.5t-155 59.5q-123 0 -184 -94t-61 -307v-934h-180z" />
<glyph unicode="&#xe0;" horiz-adv-x="987" d="M72 262q0 180 154.5 275.5t441.5 93.5v20q0 229 -226 230q-143 0 -258 -74l-41 119q135 88 326 88q109 0 185.5 -35t116.5 -95.5t57.5 -127t17.5 -148.5v-370q0 -148 16 -238h-164l-14 125h-6q-45 -63 -124 -105.5t-179 -42.5q-143 0 -223 84t-80 201zM195 1419h198 l178 -293h-127zM252 283q0 -84 48 -128t122 -44q90 0 152.5 48t87.5 117q10 31 10 58v172q-420 8 -420 -223z" />
<glyph unicode="&#xe1;" horiz-adv-x="987" d="M72 262q0 180 154.5 275.5t441.5 93.5v20q0 229 -226 230q-143 0 -258 -74l-41 119q135 88 326 88q109 0 185.5 -35t116.5 -95.5t57.5 -127t17.5 -148.5v-370q0 -148 16 -238h-164l-14 125h-6q-45 -63 -124 -105.5t-179 -42.5q-143 0 -223 84t-80 201zM252 283 q0 -84 48 -128t122 -44q90 0 152.5 48t87.5 117q10 31 10 58v172q-420 8 -420 -223zM383 1126l180 293h199l-250 -293h-129z" />
<glyph unicode="&#xe2;" horiz-adv-x="987" d="M72 262q0 180 154.5 275.5t441.5 93.5v20q0 229 -226 230q-143 0 -258 -74l-41 119q135 88 326 88q109 0 185.5 -35t116.5 -95.5t57.5 -127t17.5 -148.5v-370q0 -148 16 -238h-164l-14 125h-6q-45 -63 -124 -105.5t-179 -42.5q-143 0 -223 84t-80 201zM227 1126l193 293 h125l196 -293h-137l-119 195h-4l-119 -195h-135zM252 283q0 -84 48 -128t122 -44q90 0 152.5 48t87.5 117q10 31 10 58v172q-420 8 -420 -223z" />
<glyph unicode="&#xe3;" horiz-adv-x="987" d="M72 262q0 180 154.5 275.5t441.5 93.5v20q0 229 -226 230q-143 0 -258 -74l-41 119q135 88 326 88q109 0 185.5 -35t116.5 -95.5t57.5 -127t17.5 -148.5v-370q0 -148 16 -238h-164l-14 125h-6q-45 -63 -124 -105.5t-179 -42.5q-143 0 -223 84t-80 201zM236 1161 q-2 98 34.5 155.5t104.5 57.5q47 0 127 -45q61 -35 86 -35q27 0 40 19.5t17 68.5h94q6 -207 -139 -206q-47 0 -125 41q-61 37 -88 36q-47 0 -53 -92h-98zM252 283q0 -84 48 -128t122 -44q90 0 152.5 48t87.5 117q10 31 10 58v172q-420 8 -420 -223z" />
<glyph unicode="&#xe4;" horiz-adv-x="987" d="M72 262q0 180 154.5 275.5t441.5 93.5v20q0 229 -226 230q-143 0 -258 -74l-41 119q135 88 326 88q109 0 185.5 -35t116.5 -95.5t57.5 -127t17.5 -148.5v-370q0 -148 16 -238h-164l-14 125h-6q-45 -63 -124 -105.5t-179 -42.5q-143 0 -223 84t-80 201zM201 1272 q0 43 30.5 73.5t73.5 30.5t72 -29.5t29 -74.5q0 -43 -29 -74t-72 -31q-45 0 -74.5 31t-29.5 74zM252 283q0 -84 48 -128t122 -44q90 0 152.5 48t87.5 117q10 31 10 58v172q-420 8 -420 -223zM582 1272q0 43 29.5 73.5t72.5 30.5t71.5 -29.5t28.5 -74.5q0 -43 -28.5 -74 t-71.5 -31q-45 0 -73.5 31t-28.5 74z" />
<glyph unicode="&#xe5;" horiz-adv-x="987" d="M72 262q0 180 154.5 275.5t441.5 93.5v20q0 229 -226 230q-143 0 -258 -74l-41 119q135 88 326 88q109 0 185.5 -35t116.5 -95.5t57.5 -127t17.5 -148.5v-370q0 -148 16 -238h-164l-14 125h-6q-45 -63 -124 -105.5t-179 -42.5q-143 0 -223 84t-80 201zM252 283 q0 -84 48 -128t122 -44q90 0 152.5 48t87.5 117q10 31 10 58v172q-420 8 -420 -223zM285 1286q0 84 57 139.5t152 55.5q90 0 146 -55.5t56 -137.5t-58 -135t-146 -53q-90 0 -148.5 53t-58.5 133zM389 1286q0 -43 28.5 -76.5t71.5 -33.5q47 0 77 33.5t30 80.5t-29.5 80 t-77 33t-74 -34t-26.5 -83z" />
<glyph unicode="&#xe6;" horiz-adv-x="1583" d="M74 260q0 172 155.5 266.5t442.5 91.5v41q0 25 -9.5 57t-31 71.5t-71.5 66.5t-120 27q-143 0 -254 -76l-43 119q143 90 310 90q252 0 319 -211h4q51 100 141.5 155.5t204.5 55.5q86 0 156 -32t112 -81t70.5 -112.5t38.5 -121t10 -110.5t-6 -80h-663q-4 -172 83 -266 t232 -94q152 0 270 57l33 -127q-129 -70 -325 -70q-129 0 -231.5 58.5t-145.5 161.5h-4q-47 -102 -144.5 -161t-224.5 -59q-147 0 -228 83t-81 200zM252 274q0 -76 49 -119.5t123 -43.5q92 0 154.5 48t85.5 122q10 28 10 71v146q-422 8 -422 -224zM838 606h497 q4 57 -15.5 117.5t-75.5 111t-140 50.5q-121 0 -190.5 -89.5t-75.5 -189.5z" />
<glyph unicode="&#xe7;" horiz-adv-x="917" d="M78 485q0 231 146.5 379t385.5 148q147 0 250 -51l-41 -140q-82 47 -209 47q-164 0 -257 -106.5t-93 -267.5q0 -170 97.5 -270.5t246.5 -100.5q108 0 221 49l31 -135q-98 -51 -256 -57l-53 -82q59 -8 101 -47t42 -95q0 -86 -60.5 -126t-152.5 -40q-80 0 -139 35l31 88 q49 -31 110 -30q88 0 88 65q-2 72 -159 86l86 150q-190 25 -303 160t-113 341z" />
<glyph unicode="&#xe8;" horiz-adv-x="1026" d="M78 479q0 229 127 382t338 153q115 0 199.5 -46t127.5 -121t62.5 -149.5t19.5 -150.5q0 -29 -6 -84h-696q2 -172 98 -258t242 -86q154 0 274 51l31 -129q-135 -61 -330 -61q-227 0 -357 136t-130 363zM252 592h526q2 111 -56 202t-194 91q-125 0 -194.5 -90t-81.5 -203z M276 1419h199l180 -293h-129z" />
<glyph unicode="&#xe9;" horiz-adv-x="1026" d="M78 479q0 229 127 382t338 153q115 0 199.5 -46t127.5 -121t62.5 -149.5t19.5 -150.5q0 -29 -6 -84h-696q2 -172 98 -258t242 -86q154 0 274 51l31 -129q-135 -61 -330 -61q-227 0 -357 136t-130 363zM252 592h526q2 111 -56 202t-194 91q-125 0 -194.5 -90t-81.5 -203z M442 1126l181 293h198l-250 -293h-129z" />
<glyph unicode="&#xea;" horiz-adv-x="1026" d="M78 479q0 229 127 382t338 153q115 0 199.5 -46t127.5 -121t62.5 -149.5t19.5 -150.5q0 -29 -6 -84h-696q2 -172 98 -258t242 -86q154 0 274 51l31 -129q-135 -61 -330 -61q-227 0 -357 136t-130 363zM252 592h526q2 111 -56 202t-194 91q-125 0 -194.5 -90t-81.5 -203z M281 1126l194 293h123l197 -293h-138l-118 195h-4l-119 -195h-135z" />
<glyph unicode="&#xeb;" horiz-adv-x="1026" d="M78 479q0 229 127 382t338 153q115 0 199.5 -46t127.5 -121t62.5 -149.5t19.5 -150.5q0 -29 -6 -84h-696q2 -172 98 -258t242 -86q154 0 274 51l31 -129q-135 -61 -330 -61q-227 0 -357 136t-130 363zM252 592h526q2 111 -56 202t-194 91q-125 0 -194.5 -90t-81.5 -203z M256 1272q0 43 30.5 73.5t73.5 30.5t72 -29.5t29 -74.5q0 -43 -29 -74t-72 -31q-45 0 -74.5 31t-29.5 74zM637 1272q0 43 29.5 73.5t72.5 30.5t72 -29.5t29 -74.5q0 -43 -29 -74t-72 -31q-45 0 -73.5 31t-28.5 74z" />
<glyph unicode="&#xec;" horiz-adv-x="479" d="M-57 1419h198l181 -293h-127zM150 0v991h180v-991h-180z" />
<glyph unicode="&#xed;" horiz-adv-x="479" d="M137 1126l180 293h199l-250 -293h-129zM150 0v991h180v-991h-180z" />
<glyph unicode="&#xee;" horiz-adv-x="479" d="M-16 1126l192 293h125l197 -293h-140l-118 195h-4l-119 -195h-133zM150 0v991h180v-991h-180z" />
<glyph unicode="&#xef;" horiz-adv-x="479" d="M-53 1272q0 43 30.5 73.5t73.5 30.5t72 -29.5t29 -74.5q0 -43 -29 -74t-72 -31q-45 0 -74.5 31t-29.5 74zM150 0v991h180v-991h-180zM328 1272q0 43 29.5 73.5t72.5 30.5t71.5 -29.5t28.5 -74.5q0 -43 -28.5 -74t-71.5 -31q-45 0 -73.5 31t-28.5 74z" />
<glyph unicode="&#xf0;" horiz-adv-x="1107" d="M78 483q0 231 137 369.5t324 138.5q135 0 227 -88l4 6q-92 154 -242 265l-290 -136l-39 88l237 113q-78 57 -213 123l78 113q162 -74 289 -166l262 125l43 -91l-217 -102q174 -141 262 -326q86 -178 86 -397q0 -137 -40 -243.5t-109.5 -170t-153.5 -95.5t-176 -32 q-205 0 -337 138.5t-132 367.5zM260 485q0 -158 82 -265t205 -107q133 0 214 107.5t81 277.5q0 188 -70 274q-84 96 -217 96q-145 0 -220 -118.5t-75 -264.5z" />
<glyph unicode="&#xf1;" horiz-adv-x="1136" d="M141 991h160l10 -164h4q41 78 127 132.5t201 54.5q57 0 113.5 -19.5t112 -63.5t90 -131t34.5 -208v-592h-180v571q0 131 -55.5 212t-173.5 81q-86 0 -151.5 -53t-90.5 -131q-12 -33 -12 -84v-596h-180v723q0 160 -9 268zM317 1161q-2 98 35 155.5t105 57.5q47 0 127 -45 q61 -35 86 -35q51 0 57 88h96q4 -207 -141 -206q-47 0 -125 41q-61 37 -88 36q-47 0 -53 -92h-99z" />
<glyph unicode="&#xf2;" horiz-adv-x="1124" d="M78 487q0 242 139 384.5t352 142.5t345.5 -141.5t132.5 -368.5q0 -256 -146.5 -391.5t-347.5 -135.5q-205 0 -340 139.5t-135 370.5zM260 494q0 -164 85 -272.5t216 -108.5q129 0 215 109.5t86 275.5q0 90 -28.5 173t-98.5 145.5t-170 62.5q-150 0 -227.5 -114 t-77.5 -271zM297 1419h199l178 -293h-127z" />
<glyph unicode="&#xf3;" horiz-adv-x="1124" d="M78 487q0 242 139 384.5t352 142.5t345.5 -141.5t132.5 -368.5q0 -256 -146.5 -391.5t-347.5 -135.5q-205 0 -340 139.5t-135 370.5zM260 494q0 -164 85 -272.5t216 -108.5q129 0 215 109.5t86 275.5q0 90 -28.5 173t-98.5 145.5t-170 62.5q-150 0 -227.5 -114 t-77.5 -271zM453 1126l180 293h198l-249 -293h-129z" />
<glyph unicode="&#xf4;" horiz-adv-x="1124" d="M78 487q0 242 139 384.5t352 142.5t345.5 -141.5t132.5 -368.5q0 -256 -146.5 -391.5t-347.5 -135.5q-205 0 -340 139.5t-135 370.5zM260 494q0 -164 85 -272.5t216 -108.5q129 0 215 109.5t86 275.5q0 90 -28.5 173t-98.5 145.5t-170 62.5q-150 0 -227.5 -114 t-77.5 -271zM305 1126l193 293h125l196 -293h-139l-119 195h-4l-119 -195h-133z" />
<glyph unicode="&#xf5;" horiz-adv-x="1124" d="M78 487q0 242 139 384.5t352 142.5t345.5 -141.5t132.5 -368.5q0 -256 -146.5 -391.5t-347.5 -135.5q-205 0 -340 139.5t-135 370.5zM260 494q0 -164 85 -272.5t216 -108.5q129 0 215 109.5t86 275.5q0 90 -28.5 173t-98.5 145.5t-170 62.5q-150 0 -227.5 -114 t-77.5 -271zM309 1161q-2 98 35 155.5t105 57.5q47 0 126 -45q61 -35 87 -35q51 0 57 88h96q4 -207 -141 -206q-47 0 -125 41q-61 37 -88 36q-47 0 -53 -92h-99z" />
<glyph unicode="&#xf6;" horiz-adv-x="1124" d="M78 487q0 242 139 384.5t352 142.5t345.5 -141.5t132.5 -368.5q0 -256 -146.5 -391.5t-347.5 -135.5q-205 0 -340 139.5t-135 370.5zM260 494q0 -164 85 -272.5t216 -108.5q129 0 215 109.5t86 275.5q0 90 -28.5 173t-98.5 145.5t-170 62.5q-150 0 -227.5 -114 t-77.5 -271zM268 1272q0 43 31 73.5t74 30.5t71.5 -29.5t28.5 -74.5q0 -43 -28.5 -74t-71.5 -31q-45 0 -75 31t-30 74zM649 1272q0 43 30 73.5t73 30.5t71.5 -29.5t28.5 -74.5q0 -43 -28.5 -74t-71.5 -31q-45 0 -74 31t-29 74z" />
<glyph unicode="&#xf7;" horiz-adv-x="1220" d="M82 485v123h1057v-123h-1057zM502 186q0 51 30.5 83t79.5 32q47 0 77 -31.5t30 -83.5q0 -49 -30 -80.5t-79 -31.5t-78.5 31.5t-29.5 80.5zM502 905q0 51 30.5 83t79.5 32q47 0 77 -32t30 -83q0 -49 -30 -80.5t-79 -31.5t-78.5 31.5t-29.5 80.5z" />
<glyph unicode="&#xf8;" horiz-adv-x="1124" d="M77.5 489q0.5 240 139.5 382.5t348 142.5q139 0 252 -72l86 123l80 -55l-86 -127q150 -143 150 -379q0 -254 -145.5 -390.5t-338.5 -136.5q-147 0 -254 70l-88 -125l-76 62l86 122q-154 143 -153.5 383zM252 494q0 -145 74 -248l4 -2l405 575q-72 59 -174 60 q-154 0 -231.5 -116t-77.5 -269zM391 170q66 -57 166 -57q139 0 226 108.5t87 276.5q0 139 -69 241h-4z" />
<glyph unicode="&#xf9;" horiz-adv-x="1128" d="M143 412v579h181v-549q0 -315 221 -315q84 0 147.5 48t89.5 116q16 43 17 92v608h180v-721q0 -166 8 -270h-160l-10 162h-4q-43 -74 -126 -129.5t-202 -55.5q-63 0 -119.5 19.5t-108.5 66t-83 135.5t-31 214zM287 1419h198l181 -293h-129z" />
<glyph unicode="&#xfa;" horiz-adv-x="1128" d="M143 412v579h181v-549q0 -315 221 -315q84 0 147.5 48t89.5 116q16 43 17 92v608h180v-721q0 -166 8 -270h-160l-10 162h-4q-43 -74 -126 -129.5t-202 -55.5q-63 0 -119.5 19.5t-108.5 66t-83 135.5t-31 214zM477 1126l180 293h199l-250 -293h-129z" />
<glyph unicode="&#xfb;" horiz-adv-x="1128" d="M143 412v579h181v-549q0 -315 221 -315q84 0 147.5 48t89.5 116q16 43 17 92v608h180v-721q0 -166 8 -270h-160l-10 162h-4q-43 -74 -126 -129.5t-202 -55.5q-63 0 -119.5 19.5t-108.5 66t-83 135.5t-31 214zM307 1126l193 293h125l196 -293h-137l-119 195h-4l-119 -195 h-135z" />
<glyph unicode="&#xfc;" horiz-adv-x="1128" d="M143 412v579h181v-549q0 -315 221 -315q84 0 147.5 48t89.5 116q16 43 17 92v608h180v-721q0 -166 8 -270h-160l-10 162h-4q-43 -74 -126 -129.5t-202 -55.5q-63 0 -119.5 19.5t-108.5 66t-83 135.5t-31 214zM276 1272q0 43 31 73.5t74 30.5t71.5 -29.5t28.5 -74.5 q0 -43 -28.5 -74t-71.5 -31q-45 0 -75 31t-30 74zM657 1272q0 43 30 73.5t73 30.5t71.5 -29.5t28.5 -74.5q0 -43 -28.5 -74t-71.5 -31q-45 0 -74 31t-29 74z" />
<glyph unicode="&#xfd;" horiz-adv-x="964" d="M18 991h197l217 -585q39 -111 64 -203h4q2 6 25.5 85t37.5 122l197 581h190l-270 -706q-100 -264 -175 -403.5t-165 -217.5q-109 -96 -221 -117l-45 152q86 27 157 88q96 76 152 201q14 33 14 43q0 14 -12 47zM403 1126l181 293h198l-250 -293h-129z" />
<glyph unicode="&#xfe;" horiz-adv-x="1165" d="M150 -406v1860h178v-620h4q113 180 338 180q178 2 297.5 -138.5t119.5 -367.5q0 -256 -133 -393.5t-317 -137.5q-205 0 -305 156h-4v-539h-178zM328 391q0 -45 20 -90q29 -84 100.5 -133t161.5 -49q135 0 216 104.5t81 282.5q0 154 -79.5 259t-213.5 105 q-88 0 -160.5 -53t-105.5 -143q-20 -58 -20 -101v-182z" />
<glyph unicode="&#xff;" horiz-adv-x="964" d="M18 991h197l217 -585q39 -111 64 -203h4q2 6 25.5 85t37.5 122l197 581h190l-270 -706q-100 -264 -175 -403.5t-165 -217.5q-109 -96 -221 -117l-45 152q86 27 157 88q96 76 152 201q14 33 14 43q0 14 -12 47zM213 1272q0 43 30.5 73.5t73.5 30.5t72 -29.5t29 -74.5 q0 -43 -29 -74t-72 -31q-45 0 -74.5 31t-29.5 74zM594 1272q0 43 29.5 73.5t74.5 30.5q41 0 70 -29.5t29 -74.5q0 -43 -28 -74t-73 -31t-73.5 31t-28.5 74z" />
<glyph unicode="&#x152;" horiz-adv-x="1830" d="M74 680q0 336 188.5 529.5t491.5 193.5q53 0 180 -10q102 -12 131 -13h659v-149h-567v-436h535v-150h-535v-495h598v-150h-706q-37 0 -136 -12q-127 -10 -170 -11q-311 0 -490 198t-179 505zM264 688q-2 -256 135.5 -410.5t376.5 -154.5q127 0 201 27v1077 q-88 31 -217 30q-229 0 -363.5 -156.5t-132.5 -412.5z" />
<glyph unicode="&#x153;" horiz-adv-x="1767" d="M78 489q0 236 135 380.5t340 144.5q127 0 228.5 -62.5t146.5 -175.5h4q55 117 149.5 177.5t210.5 60.5q90 0 163 -32t116 -81t71.5 -112.5t40 -123t11.5 -116.5q0 -55 -6 -84h-674q2 -164 93 -255t236 -91q135 0 267 55l32 -129q-119 -68 -321 -68q-279 0 -391 234h-6 q-53 -115 -157.5 -174.5t-225.5 -59.5q-201 0 -332 140.5t-131 371.5zM260 494q0 -162 83 -271.5t212 -109.5q131 0 211 106.5t80 276.5q0 158 -74 270.5t-217 112.5q-102 0 -172 -62.5t-96.5 -146.5t-26.5 -176zM1014 594h506q0 47 -10.5 93t-35 92t-75.5 75t-121 29 q-121 0 -188.5 -89t-75.5 -200z" />
<glyph unicode="&#x178;" horiz-adv-x="1107" d="M27 1380h202l195 -381q82 -160 137 -284h4q33 76 140 284l198 381h203l-463 -792v-588h-180v586zM283 1567q0 43 29.5 72.5t72.5 29.5q41 0 68.5 -29.5t27.5 -72.5q0 -45 -27.5 -75t-70.5 -30t-71.5 31t-28.5 74zM664 1567q0 43 28.5 72.5t71.5 29.5t70.5 -29.5 t27.5 -72.5q0 -45 -27.5 -75t-72.5 -30q-43 0 -70.5 30t-27.5 75z" />
<glyph unicode="&#x2c6;" horiz-adv-x="614" d="M51 1126l193 293h125l196 -293h-139l-119 195h-4l-119 -195h-133z" />
<glyph unicode="&#x2dc;" horiz-adv-x="614" d="M57 1161q-2 98 35 155.5t105 57.5q47 0 127 -45q61 -35 86 -35q51 0 57 88h96q4 -207 -141 -206q-47 0 -125 41q-61 37 -88 36q-47 0 -53 -92h-99z" />
<glyph unicode="&#x2000;" horiz-adv-x="899" />
<glyph unicode="&#x2001;" horiz-adv-x="1798" />
<glyph unicode="&#x2002;" horiz-adv-x="899" />
<glyph unicode="&#x2003;" horiz-adv-x="1798" />
<glyph unicode="&#x2004;" horiz-adv-x="599" />
<glyph unicode="&#x2005;" horiz-adv-x="449" />
<glyph unicode="&#x2006;" horiz-adv-x="299" />
<glyph unicode="&#x2007;" horiz-adv-x="299" />
<glyph unicode="&#x2008;" horiz-adv-x="224" />
<glyph unicode="&#x2009;" horiz-adv-x="359" />
<glyph unicode="&#x200a;" horiz-adv-x="99" />
<glyph unicode="&#x2010;" horiz-adv-x="628" d="M61 487v134h506v-134h-506z" />
<glyph unicode="&#x2011;" horiz-adv-x="628" d="M61 487v134h506v-134h-506z" />
<glyph unicode="&#x2012;" horiz-adv-x="628" d="M61 487v134h506v-134h-506z" />
<glyph unicode="&#x2013;" horiz-adv-x="1024" d="M61 459v123h902v-123h-902z" />
<glyph unicode="&#x2014;" horiz-adv-x="2048" d="M61 459v123h1926v-123h-1926z" />
<glyph unicode="&#x2018;" horiz-adv-x="423" d="M72 903q35 127 91 271.5t99 216.5l115 12q-84 -233 -121 -479z" />
<glyph unicode="&#x2019;" horiz-adv-x="423" d="M70 903q79 215 120 481l187 19q-35 -127 -92.5 -270.5t-100.5 -214.5z" />
<glyph unicode="&#x201a;" horiz-adv-x="423" d="M43 -242q84 238 119 480l186 20q-35 -127 -92 -270t-100 -215z" />
<glyph unicode="&#x201c;" horiz-adv-x="724" d="M70 903q35 129 92 272.5t100 215.5l115 12q-80 -217 -121 -479zM375 903q33 125 90 269.5t100 218.5l115 12q-80 -217 -121 -479z" />
<glyph unicode="&#x201d;" horiz-adv-x="724" d="M70 903q81 233 120 481l185 19q-35 -127 -91.5 -270.5t-99.5 -214.5zM373 903q80 215 121 481l184 19q-35 -127 -91.5 -270.5t-99.5 -214.5z" />
<glyph unicode="&#x201e;" horiz-adv-x="729" d="M41 -242q80 213 121 480l184 20q-33 -123 -90 -267t-100 -218zM344 -242q80 213 121 480l186 20q-35 -127 -92 -270t-100 -215z" />
<glyph unicode="&#x2022;" horiz-adv-x="577" d="M76 535q-2 90 61.5 152.5t153.5 62.5t152.5 -62.5t62.5 -150.5q0 -90 -62.5 -152.5t-152.5 -62.5t-152.5 61t-62.5 152z" />
<glyph unicode="&#x2026;" horiz-adv-x="2048" d="M223 106q0 57 34 93.5t87 36.5q55 0 88 -36t33 -94q0 -55 -33 -92t-88 -37q-53 0 -88 37t-33 92zM905 106q0 57 35 93.5t88 36.5t86 -36t35 -94q0 -55 -34 -92t-89 -37q-53 0 -88 37t-33 92zM1587 106q0 57 35 93.5t88 36.5t87 -36t34 -93.5t-34 -93.5t-89 -36 q-53 0 -87 37t-34 92z" />
<glyph unicode="&#x202f;" horiz-adv-x="359" />
<glyph unicode="&#x2039;" horiz-adv-x="522" d="M59 516l271 377h145l-274 -377l274 -377h-145z" />
<glyph unicode="&#x203a;" horiz-adv-x="522" d="M47 139l275 377l-275 377h143l275 -377l-272 -377h-146z" />
<glyph unicode="&#x205f;" horiz-adv-x="449" />
<glyph unicode="&#x20ac;" d="M20 512v100h117v31q0 35 4 92h-121v103h136q37 211 168 346q164 170 405 170q150 0 272 -66l-40 -135q-96 57 -230 57q-164 0 -270 -112q-90 -88 -123 -260h571v-103h-590q-4 -53 -4 -86v-37h594v-100h-579q23 -170 112 -268q113 -119 289 -119q131 0 250 68l35 -130 q-127 -86 -305 -86q-258 0 -416 183q-121 133 -148 352h-127z" />
<glyph unicode="&#x2122;" horiz-adv-x="1267" d="M61 1288v92h467v-92h-178v-465h-110v465h-179zM561 823l41 557h166l96 -272q12 -43 37 -141h2q4 18 12.5 46.5t14.5 51t12 41.5l96 274h160l43 -557h-111l-20 328q-2 23 -3 76t-1 80h-6q-4 -14 -20.5 -76t-26.5 -90l-101 -310h-114l-101 318q-10 43 -39 158h-6 q0 -53 -4 -156l-20 -328h-107z" />
<glyph unicode="&#xe000;" horiz-adv-x="993" d="M0 0v993h993v-993h-993z" />
<glyph unicode="&#xfb01;" horiz-adv-x="1071" d="M29 854v137h139v53q0 199 112.5 316t319.5 117q70 0 141.5 -18.5t110.5 -47.5l-51 -137q-80 57 -209 57q-246 0 -246 -291v-49h576v-991h-179v854h-397v-854h-178v854h-139z" />
<glyph unicode="&#xfb02;" horiz-adv-x="1071" d="M29 854v137h139v43q0 219 139 342q119 100 318 101q178 0 297 -66v-1411h-179v1311q-49 27 -147 26q-131 0 -190.5 -81.5t-59.5 -215.5v-49h232v-137h-232v-854h-178v854h-139z" />
</font>
</defs>
</svg>
